<svg xmlns="http://www.w3.org/2000/svg" width="183" height="34.603" viewBox="0 0 183 34.603">
  <g>
    <path fill="rgb(28,162,220)" fill-rule="evenodd" d="M16.57505307 34.53120549c-4.57349629 0-8.47946647-1.63951725-11.71776095-4.90991714C1.61914724 26.34225384 0 22.37866066 0 17.72232865c0-4.62270244 1.61914724-8.56932934 4.85729212-11.84821237C10.6735359 0 16.70505759.99934356 23.93504446.99934356V6.0307513h-7.6357087v-.00166633c-3.08584958.06407796-5.72319105 1.21233083-7.91157559 3.43657843-2.2534616 2.29862652-3.3801176 5.05367598-3.3801176 8.25666524 0 3.23661884 1.126656 6.00848308 3.3801176 8.30726108 2.253312 2.29014339 4.98235976 3.43945665 8.1872929 3.43945665h.14915363v5.06215911h-.14915363z"/>
    <path fill="rgb(41,52,73)" fill-rule="evenodd" d="M23.93504446 13.60437272v15.92860014h1.95291029c3.23829448 0 6.0259864-1.1577964 8.36277656-3.47338918 2.33693976-2.3155928 3.50518524-5.09594017 3.50518524-8.34104214 0-3.21132091-1.13488413-5.96637037-3.4051012-8.2649969-2.27006747-2.298778-5.00749298-3.44809125-8.21227651-3.44809125V.93481114c4.60685763 0 8.52958329 1.63966874 11.76787777 4.91855176 3.23799527 3.27888302 4.85714251 7.23399307 4.85714251 11.86517864 0 4.6310341-1.66073671 8.6031104-4.98250936 11.91577448-3.32162304 3.31296704-7.28593818 4.9691476-11.89309501 4.9691476h-4.45650718c-.6678253 0-1.25202284-.25343365-1.75274222-.76045243-.50086898-.50717026-.75115386-1.09871742-.75115386-1.77479295V13.60437272h5.00749297z"/>
    <path fill="rgb(41,52,73)" fill-rule="evenodd" d="M127.57707214 24.2750969v2.27817535h-1.82499694c-.90000916 0-1.6125641-.08013535-2.13752747-.24055863-.5251007-.16027069-.99589539-.4091568-1.41255188-.74666595-.4332428-.35432434-.76235962-.79317475-.98751831-1.31639862-.2250061-.52307892-.33750916-1.21505738-.33750916-2.07564545v-6.75863266h-1.82484436V13.137043h1.82484436V8.83382225h2.92503357V13.137043h3.69996643v2.27832794h-3.69996643v6.1510315c0 .25328063.02079773.5064125.06237793.75939178.04174805.25328064.1168518.50232315.2251587.74696732.1081543.24465179.27078246.45142746.48754882.62002945.333313.286911.72917176.45566558 1.1873932.50625991.45838927.05059815.82087707.076046 1.08761596.076046h.72497558zM70.32885742 12.9852562c-.40003967 0-.83328247.0083313-1.29989624.02529907-.46660614.01681518-.94159698.07180404-1.4249649.16451263-.4833603.09285736-.94997406.23631287-1.39997864.43036652-.45000458.19404983-.85826874.45975494-1.22494507.7972641-.38343048.35447311-.68772125.7721138-.91271973 1.25307846-.22485351.48111343-.39585113.9704094-.51239013 1.46833801-.1166916.49762726-.19164276.99131775-.2250061 1.4806137-.03335572.48959733-.04996491.91981126-.04996491 1.29109956 0 .33750915.0166092.73833847.0499649 1.20248413.03336335.46399689.10412598.94496155.2124405 1.4427414.10830688.49792861.27496337.98313522.49996948 1.45561217.22515106.47248078.53767395.89436722.937706 1.26565552.36667632.33750916.77494048.60321045 1.22494506.7972641.45000458.19404984.91661835.33750534 1.39997864.43036652.48336792.09286117.95835876.1517868 1.4249649.17723846.46661377.02544785.89985657.0378685 1.29989624.0378685.3832779 0 .80830383-.01242065 1.27490998-.0378685.46661376-.02545166.94578552-.08437729 1.43738555-.17723846.49173737-.09286118.96672821-.23631668 1.42510987-.43036652.45822906-.19405365.86245727-.45975494 1.21237945-.7972641.4833603-.47248077.88744355-1.14340591 1.21237946-2.01232147.32508087-.86921692.48754883-2.02095413.48754883-3.45536041 0-.35447693-.01660157-.76802826-.0499649-1.24050904-.03321076-.47248077-.10831452-.95344162-.22499848-1.44273758-.1166916-.48944854-.28739166-.97450256-.51239014-1.455616-.2250061-.48096465-.52929687-.89860534-.91257477-1.25307845-.36667633-.33750916-.77494049-.60321427-1.22494507-.7972641-.44985199-.19405365-.91661834-.33750916-1.39997863-.43036652-.48321534-.09270859-.95820618-.14769745-1.42481232-.16451263-.46661377-.01696778-.90016174-.02529907-1.30004883-.02529907zm28.34906006 11.2898407h6.4746399v2.27817535h-7.34967042c-.33331299 0-.68322754-.01272202-1.0499115-.0378685-.3666687-.02545166-.72497558-.09710312-1.07489013-.21526337-.35006714-.11815643-.6917572-.29115295-1.0249176-.51898193-.33332825-.22783661-.63342286-.53580475-.90016175-.92390442-.43325806-.64138794-.69999695-1.39214325-.79992676-2.2528801-.0999298-.86073685-.14990234-1.73828506-.14990234-2.63264847 0-.62442016.01242065-1.21081543.0373993-1.7591896.02513122-.54852677.09170531-1.0547905.20016479-1.51893616.10816955-.46414947.26644897-.89012527.47483825-1.27822876.20825196-.38825226.49578858-.7425766.86245728-1.06327057.36668396-.32069015.77090454-.56533813 1.21238708-.73394012.44177246-.16890717.8875885-.29115296 1.33758545-.36719895.44985962-.0758934.88310242-.12239837 1.30004883-.13921356.41664124-.01696777.7831726-.02529907 1.09973145-.02529907.78346252 0 1.55421447.04650497 2.31240844.13936615.7584839.09270859 1.4459076.33311462 2.06240845.7213707.3835907.25312805.69595337.54003906.93756104.86058044.24160766.32069397.43325805.67092514.57492065 1.05054855.14167786.37976838.23757935.77620697.28753662 1.1897583.04997254.41355134.07510376.83104325.07510376 1.2529297 0 .33750533-.03335571.6877365-.1000824 1.05054473-.0665741.36280441-.24160766.68774033-.52494812.97465134-.20002746.20238113-.42098999.33750534-.66259765.40507126-.24160767.06740951-.49578858.10118866-.7622223.10118866h-7.69989013c0 .286911.01660156.61593628.04997254.98722457.0333557.37113953.07510375.65819932.12506103.86058426.09992981.35432434.24160767.637146.42501831.84801102.18327332.2110176.39988709.3712883.65002441.48111343.24983216.10952378.51239014.18132782.78735352.21511078.27497864.03363037.5457611.05059433.8125.05059433zm-35.69873047 2.27817535v-2.27817536h-4.7498703c-.30010223 0-.61247253-.01272583-.93756103-.0380249-.32493592-.02529526-.6374588-.08861923-.93740845-.1898079-.29995728-.10119247-.57492066-.24464797-.8249054-.4303665-.25013733-.18556977-.45838165-.43885422-.62504577-.7593918-.08332825-.16875457-.15423584-.37553405-.21243286-.62017821-.05834198-.2446518-.10427094-.4936905-.1374817-.74666977-.03336334-.25328064-.05416107-.50201798-.06253814-.74681855-.00852203-.24480056-.01256561-.46823883-.01256561-.67077255 0-.10134506.00404358-.2573738.0125656-.46839142.00837708-.21086502.0166092-.43869781.02498628-.6833458.00822448-.24480056.02902221-.48944854.06238556-.7342453.0335083-.24464797.07509613-.45975494.12506866-.6453247.1666565-.57382202.50415802-1.07175445 1.01250458-1.49363708.50835418-.42188645 1.25396728-.63275147 2.23745727-.63275147h4.7247467V13.137043h-5.67487334c-.59990693 0-1.12067414.05059433-1.5624466.1519394-.44147491.10134124-.8249054.22359084-1.1499939.36704635-.3249359.1434555-.59571838.29963684-.81219482.46823883-.21677399.16890716-.39180756.32069397-.5251007.45566559-.36667634.38810348-.65002442.81438064-.85004426 1.27837753-.19986725.46399689-.34992218.93647766-.45000458 1.4175911-.0999298.48096466-.15827941.95753478-.17503357 1.43032073-.01660919.47248078-.02483367.9111786-.02483367 1.31609726 0 .96192551.06253051 1.85219956.18730163 2.67067337.12506867.81847.4625702 1.55665207 1.01265717 2.21485138.29995727.35447693.62908172.64138794.98738098.86058808.35829162.21949768.71240234.38825226 1.06247711.50640869.34991455.11816025.6917572.19405365 1.0250702.2278366.33316802.03377915.62489318.05059434.87487792.05059434h6.37485504zm16.04949951 0h2.92488098V16.1241684c0-.0843773.00403595-.17723847.01241303-.27843094.00837707-.10134125.05415344-.19404984.13748169-.27857971.08332825-.0843773.16680908-.13072968.24999237-.13906098.08332825-.00863647.1666565-.01272583.2501297-.01272583h2.97484589c.53318786 0 .96238708.06332016 1.28747558.1898079.32493591.12664413.59571839.3332672.81234741.62017822.23338318.32069397.38328553.68774032.44999695 1.10114288.06672669.41355133.1000824.83952713.1000824 1.27822494v7.94854737h2.9247284v-8.83457947c0-.92799377-.12910462-1.66208649-.38731385-2.20212936-.25836182-.54004288-.5625-.9704094-.9124298-1.29110337-.5334778-.48929596-1.10839845-.79302215-1.72506715-.91117859-.61665344-.11800766-1.27490234-.17723846-1.97489929-.17723846h-4.67492676c-.28334808 0-.62069702.02105713-1.01235962.06332016-.39165497.04226303-.7291565.22359085-1.01250457.54428482-.19987488.2193489-.32089997.46399689-.36234284.73409271-.04173279.27009964-.06253052.50626374-.06253052.70879746v11.3657341zm39.37356568-2.27817536h-4.74987793c-.29995728 0-.61231995-.01272583-.93756104-.0380249-.32478332-.02529526-.63745117-.08861923-.93725586-.1898079-.30010986-.10119247-.57492065-.24464797-.82505798-.4303665-.24998474-.18556977-.45838928-.43885422-.62489319-.7593918-.08332825-.16875457-.15423584-.37553405-.21243286-.62017821-.05848694-.2446518-.10427856-.4936905-.13763428-.74666977-.03335571-.25328064-.05400085-.50201798-.06253052-.74681855-.00837707-.24480056-.01242065-.46823883-.01242065-.67077255 0-.10134506.00404358-.2573738.01242065-.46839142.00852967-.21086502.01675416-.43869781.02513123-.6833458.00822449-.24480056.02902222-.48944854.06237793-.7342453.03352356-.24464797.07495117-.45975494.1249237-.6453247.16680909-.57382202.50430298-1.07175445 1.0126648-1.49363708.50834656-.42188645 1.25396729-.63275147 2.23730469-.63275147h4.72488403V13.137043h-5.67486572c-.5998993 0-1.1208191.05059433-1.56245422.1519394-.44161988.10134124-.8249054.22359084-1.1499939.36704635-.32493591.1434555-.59570313.29963684-.81233215.46823883-.21678162.16890716-.3916626.32069397-.52496338.45566559-.3666687.38810348-.65002442.81438064-.85018921 1.27837753-.19985962.46399689-.34976196.93647766-.44984436 1.4175911-.09994507.48096466-.158432.95753478-.17503357 1.43032073-.01661682.47248078-.02484131.9111786-.02484131 1.31609726 0 .96192551.06237793 1.85219956.18730164 2.67067337.12506103.81847.4624176 1.55665207 1.0125122 2.21485138.3000946.35447693.6290741.64138794.98751831.86058808.35830689.21949768.7124176.38825226 1.06233216.50640869.35006713.11816025.6917572.19405365 1.02522277.2278366.3331604.03377915.6248932.05059434.87472535.05059434h6.37486267v-2.27817536zm10.79980468-11.1380539v2.27832795h6.52476502c.23323059 0 .47917175.03363037.73738098.10119248.25836182.06740951.4874115.22783279.6874237.48096084.1666565.20253754.27093507.41355515.31251527.63275147.04174804.2195015.06239318.4305191.06239318.63290405v.93662643h-5.7496643c-.3500824 0-.73739624.0380249-1.16256714.1139183-.42486572.07589341-.84570313.29963685-1.26234436.67077256-.49996948.4388504-.8125.94496155-.93756104 1.51893616-.1249237.57367325-.18730163 1.15582657-.18730163 1.74661636 0 .25297928.00822448.53989029.0248413.86058426.01660157.32069397.06253052.64971924.13763428.98722458.07493592.33750915.19163514.66228866.34991455.97449875.15843201.31236267.37086487.58654785.63745118.82271576.3834381.33750534.7875061.53155899 1.21252441.58215332.42488098.05059814.82072449.07604599 1.18740845.07604599h6.32473755c.31671142 0 .64164734-.02954102.97496032-.08846665.333313-.0592308.61665345-.20677566.85003662-.44309234.2332306-.23631668.37908936-.52307892.43743897-.86058426.0583496-.33765793.08737183-.62456894.08737183-.86073685v-6.96116638c0-.75954437-.091568-1.40502167-.27497864-1.93658066-.18310547-.53155899-.41664124-.94086838-.6999817-1.2277832-.29980468-.32054138-.69146728-.57366944-1.1748352-.75939179-.48321533-.18556595-1.00816345-.27842712-1.5750122-.27842712h-7.5245514zM66.3165207 19.08584214c-.00837707.3037262-.01256561.56534195-.01256561.78469086 0 .55685806.03769684 1.14764786.11250305 1.77191544.07509613.62441635.32074738 1.1812744.73738861 1.67072296.43354797.48944473.93756104.79741287 1.51248169.92390442.57507324.12664032 1.12919617.18980789 1.662529.18980789.55008697 0 1.10406493-.06316757 1.66238403-.1898079.55831909-.12649154 1.05424499-.43445968 1.48749542-.92390441.43340301-.48944855.6875763-1.0379715.76237488-1.6454277.07510376-.60760499.11250305-1.2065735.11250305-1.7972107v-.8101387c0-.30357743-.02483368-.61593628-.07480622-.93647766-.0499649-.32069397-.1334381-.637146-.2501297-.9492035-.116539-.31236267-.2915802-.59503173-.52495575-.8481636-.21662902-.2361641-.45404052-.42597198-.71240997-.56958008-.25836182-.1434555-.52495575-.25313186-.80007171-.32887268-.27497101-.07604599-.55397797-.12255096-.83747101-.13936615-.28334809-.01681518-.5583191-.02514648-.82491303-.02514648-.23323059 0-.49593353.0083313-.7875061.02514648-.29157257.01681519-.5791092.06332016-.86245728.13936615-.28334808.07574082-.56235504.18541718-.83732605.32887268-.27511596.1436081-.51268768.33341599-.71255493.56958008-.20001983.23631668-.35844421.51474762-.47499084.83543777-.11668396.32069397-.20001221.6454773-.2501297.97450257-.04997254.32917404-.07899475.64547348-.08737183.94935226zm29.5989914-1.759346c-.04174805.37977218-.07092286.7889328-.08752442 1.22763061h6.0749054c.28320312 0 .4624176-.0842247.53721618-.25312805.07510376-.16875458.11250305-.34584046.11250305-.53141022 0-.42203522-.08735656-.78483963-.26239013-1.08856583-.17489624-.30387878-.37072754-.54004287-.5874939-.70895004-.36668396-.28660583-.77075195-.45975494-1.21238708-.51883316-.44161988-.05892563-.87068177-.08846664-1.287323-.08846664-.2001648 0-.41664124.00408935-.65002442.01257324-.2335205.00848389-.47512817.03802109-.72512817.08861923-.24983215.05059433-.49577331.13921356-.73738098.26585388-.24176025.12649155-.4625702.29948426-.66244507.51898575-.3000946.33750916-.47094726.69607163-.51252747 1.07569122zm41.61102294 6.2398033v-3.08831405H132.651886c-.09992981 0-.26269532.02105713-.48754883.06332016-.2250061.04226303-.4208374.17299652-.58734131.39234543-.05026245.0675621-.11683655.20253372-.2001648.40491867-.08319091.20268631-.1249237.54852677-.1249237 1.0379715 0 .20253372.02095032.45566559.06237793.75954437.04174805.3035736.1542511.54837418.33750915.73394012.1000824.10119248.2375641.19405365.41259766.27843094.17489624.0843773.35411072.12664032.53752136.12664032h4.0747223c.08332824 0 .1876068-.00424194.31266784-.01272583.12477112-.0083313.23727417-.05483627.33735657-.13906097.09994506-.08452988.158432-.17314911.17503357-.26600647.01661682-.09286118.0248413-.1898117.0248413-.29100418z"/>
    <path fill="rgb(28,162,220)" fill-rule="evenodd" d="M151.50105286 8.83382225V13.137043h-3.92497254c-.2665863 0-.5874939.01696777-.96253967.05059814-.37490845.03377915-.76657105.1139145-1.1748352.24055481-.40841675.12664414-.81668091.32478333-1.22494507.59488297-.4084015.27009582-.77088929.64138412-1.08744812 1.1138649-.45001221.65804672-.73335267 1.39638138-.85005188 2.2148552-.11668396.81847-.17488099 1.58210372-.17488099 2.29074859 0 1.1138649.0665741 2.00399017.19987488 2.67082214.13343811.66653442.28334046 1.19385147.44984436 1.58210754.25013733.59048462.54605103 1.05887604.8875885 1.4047165.34155274.34598922.70419312.61169433 1.08746338.79741287.38328553.18556976.77075196.30796814 1.16256714.36719894.39151001.05892945.7539978.08846665 1.0873108.08846665h5.22486877c.29994201 0 .62069702-.03377915.96253967-.10119248.34153748-.06740951.6290741-.26161194.86245728-.58215332.13328552-.18572235.23323059-.4388504.29980468-.75954437.06686402-.32054138.10023499-.62442017.10023499-.91133118V8.83382225h-2.92488098zm10.32466125 4.17673302c.46661377-.01696778.89985657-.02529907 1.29989624-.02529907.39988709 0 .83343506.0083313 1.30004883.02529907.46661377.01681518.94158936.07180404 1.42481995.16451263.48335266.09285736.95011901.23631287 1.39997863.43036652.44999695.19404983.85826111.45975494 1.22494507.7972641.38327027.35447311.68756104.7721138.91256714 1.25307846.2250061.48111343.39570618.96616745.51239014 1.455616.11668396.48929595.19163513.9702568.2250061 1.44273757.03335571.47248078.04995728.8860321.04995728 1.24050904 0 1.43440628-.16246033 2.5861435-.48754883 3.45536041-.32493591.86891556-.72901917 1.5398407-1.21237183 2.01232147-.3499298.33750916-.75415039.60321045-1.21238708.7972641-.45837403.19404984-.93336487.33750534-1.42510987.43036652-.4915924.09286117-.97076416.1517868-1.43737793.17723846-.46661377.02544785-.89163208.0378685-1.2749176.0378685-.40003967 0-.83328247-.01242065-1.29989624-.0378685-.46661377-.02545166-.94174194-.08437729-1.42495727-.17723846-.48336792-.09286118-.9499817-.23631668-1.39997864-.43036652-.4500122-.19405365-.85827637-.45975494-1.22494507-.7972641-.40003967-.3712883-.7124176-.79317474-.93756104-1.26565552-.2250061-.47247695-.39151-.95768356-.49996948-1.45561218-.10832214-.49777984-.17907715-.9787445-.21243286-1.4427414-.03321838-.46414565-.04997253-.86497497-.04997253-1.20248412 0-.3712883.01675415-.80150223.04997253-1.29109955.03335571-.48929596.10845947-.98298645.22499085-1.48061371.11654663-.49792862.28753662-.98722458.51254272-1.46833801.22485352-.48096466.5289917-.89860535.91242981-1.25307846.3666687-.33750916.77493286-.60321427 1.22494507-.7972641.44999695-.19405365.91661072-.33750916 1.39997864-.43036652.48321533-.09270859.9583435-.14769745 1.42495727-.16451263zM183 24.27509689v2.27817536h-6.37486267c-.24983215 0-.54171753-.01681519-.87487793-.05059433-.33331299-.03378296-.67500305-.10967636-1.0250702-.22783661-.35006713-.11815643-.70417785-.28691101-1.06233214-.5064087-.35844422-.21920013-.68742371-.50611114-.98751831-.86058807-.5500946-.6581993-.88760376-1.39638137-1.01251221-2.21485138-.1249237-.81847381-.18745423-1.70874786-.18745423-2.67067337 0-.40491867.0082245-.84361648.02497864-1.31609726.01661682-.47278595.07495117-.94935607.17489624-1.43032074.10023499-.48111343.25012207-.9535942.44999695-1.4175911.2000122-.46399688.4835205-.89027404.85018921-1.27837752.1331482-.13497162.30818176-.28675843.52496338-.4556656.21647644-.16860198.48739624-.32478332.81233215-.46823882.3250885-.1434555.70837403-.26570511 1.14984131-.36704636.44178772-.10134506.96269226-.1519394 1.56245422-.1519394h5.67501831v2.27832795h-4.72489929c-.9833374 0-1.72909546.21086502-2.23744201.63275147-.50836182.42188263-.84570313.91981506-1.01251221 1.49363708-.04997254.18556976-.09155274.40067673-.1250763.6453247-.03320312.24479676-.05400085.48944474-.06222534.7342453-.00852966.24464799-.01675415.47248078-.02513122.6833458-.00837708.21101761-.01257324.36704636-.01257324.46839142 0 .20253372.00419616.42597199.01257324.67077255.00837707.24480057.02915954.4935379.06253052.74681855.0333557.25297927.07913208.50201797.13748168.74666977.05834961.24464416.1292572.45142364.21243287.62017822.16665649.32053757.37490844.57382202.62504577.75939178.24998474.18571854.52494812.32917404.82505799.43036652.29980468.10118866.61231994.16451263.93725586.1898079.3250885.02529906.63745117.0380249.93756103.0380249H183zm-23.899292-4.4045639c0-.2193489.00419617-.48096466.01257325-.78469086.00837708-.30387878.0373993-.62017822.08735657-.94935226.05012512-.32902527.13345337-.6538086.25013733-.97450257.11654663-.32069015.27497863-.59912109.47499084-.83543777.19987488-.2361641.43743897-.42597198.71255493-.56958008.27496338-.1434555.5539856-.25313186.83732605-.32887268.28334046-.07604599.57087708-.12255096.86245728-.13936615.2915802-.01681518.55427551-.02514648.7875061-.02514648.2665863 0 .54156494.0083313.8249054.02514648.28349304.01681519.56251526.06332016.83747863.13936615.27511597.07574082.54156495.18541718.80007935.32887268.25836182.1436081.49577332.33341599.71240234.56958008.23338318.25313187.40841675.53580093.52494812.8481636.11669922.3120575.20018006.62850953.25013733.9492035.04997254.32054138.07479859.63290023.07479859.93647766v.8101387c0 .5906372-.0373993 1.18960571-.1124878 1.7972107-.07481384.6074562-.32897949 1.15597915-.76237487 1.6454277-.43325806.48944473-.92918396.79741287-1.48750306.92390442-.55831909.12664032-1.11228942.18980789-1.66238403.18980789-.5333252 0-1.08746338-.06316757-1.66253662-.1898079-.57492065-.12649154-1.07893372-.43445968-1.51248169-.92390441-.41664123-.48944855-.66227722-1.04630661-.73738098-1.67072296-.07479858-.62426758-.11250305-1.21505738-.11250305-1.77191544zm-7.59965514-4.45516205v7.72071457c0 .10118866-.00852967.25737-.02513123.46823883-.01661682.2110176-.08332825.36689377-.20002746.46823883-.09992981.10134125-.2374115.1602707-.41230774.17708588-.17503357.01711654-.2959137.02544784-.36262513.02544784h-2.34980774c-.21678161 0-.4500122-.01696777-.69999694-.05059433-.25013733-.03378296-.4959259-.10119629-.73753357-.20269012-.24160767-.10118866-.47079468-.25297546-.6874237-.455513-.21678163-.20253372-.40003968-.47248078-.55009461-.8101387-.04995728-.11800766-.12072754-.38810349-.21243287-.80998612-.09170532-.42188644-.13748168-1.15597915-.13748168-2.20213318 0-.91148376.0583496-1.60316086.17488098-2.07594299.11669922-.47248077.25013733-.82680512.40003967-1.0629692.31671143-.5232277.70837402-.85224915 1.17497253-.98737336.46661377-.13497543.89163208-.20238495 1.2750702-.20238495h3.34989929z"/>
  </g>
</svg>